<svg id="Layer_1" data-name="Layer 1" xmlns="http://www.w3.org/2000/svg" viewBox="0 0 136 50.6"><defs><style>.cls-1{fill:#4191ce;}.cls-2{fill:#fff;}.cls-3{fill:#10a95b;}.cls-4{fill:#259cd7;}</style></defs><path class="cls-1" d="M13.62,5.22h0S-1.53,4.64.13,22.21c.21,1.4.92,10.9,13.49,22.68h0C26.2,33.11,26.91,23.62,27.12,22.21,28.78,4.65,13.63,5.22,13.62,5.22Z"/><path class="cls-2" d="M13.62,29.62A11.14,11.14,0,1,0,2.48,18.48,11.14,11.14,0,0,0,13.62,29.62Z"/><path class="cls-3" d="M13.63,28.18a3,3,0,0,0,2-.75,2.8,2.8,0,0,0,1-2.09c0-1.14,0-2.28,0-3.42,0-.35,0-.39.36-.39,1,0,1.95,0,2.92,0a5.79,5.79,0,0,0,1.25-.17,2.66,2.66,0,0,0,1.93-1.7,3,3,0,0,0-.21-2.79,3.06,3.06,0,0,0-2.72-1.45c-1,0-2,0-3.06,0-.47,0-.47,0-.47-.53,0-1,0-2,0-3a3,3,0,0,0-.5-1.81,3,3,0,0,0-2.1-1.3,2.12,2.12,0,0,0-.44,0h0a3,3,0,0,0-1,.16,3.09,3.09,0,0,0-2.07,2.89v3c0,.7.05.59-.55.59H7.21a4.37,4.37,0,0,0-.72.06,3.07,3.07,0,0,0-2.13,4.65A3,3,0,0,0,7,21.54c.53,0,1.06,0,1.59,0s1.14,0,1.71,0c.26,0,.34.09.34.37,0,1.05,0,2.11,0,3.16a3,3,0,0,0,2.54,3.06,2.94,2.94,0,0,0,.51.05"/><path class="cls-4" d="M133.84,16.09a2.19,2.19,0,0,0-2.16,2.16v5.3a5.87,5.87,0,0,0-3.74-1.38c-3.67,0-6.64,3.53-6.64,7.88s3,7.89,6.64,7.89a5.93,5.93,0,0,0,3.86-1.49,2.16,2.16,0,0,0,.93,1.17,2.15,2.15,0,0,0,2.76-.44,2.17,2.17,0,0,0,.51-1.4V18.25a2.17,2.17,0,0,0-2.16-2.16Zm-5.09,17.79c-1.62,0-2.93-1.75-2.93-3.9s1.31-3.89,2.93-3.89,2.93,1.74,2.93,3.89S130.37,33.88,128.75,33.88Z"/><path class="cls-3" d="M72,38a6.18,6.18,0,0,1-4.73-1.81,7.07,7.07,0,0,1-1.72-5V24.57a2.54,2.54,0,0,1,.66-1.76,2.39,2.39,0,0,1,.72-.5,2.24,2.24,0,0,1,1.71,0,2.23,2.23,0,0,1,.71.5,2.51,2.51,0,0,1,.67,1.76v6.59a2.67,2.67,0,0,0,.45,1.75,2,2,0,0,0,1.53.52,2,2,0,0,0,1.54-.52A2.62,2.62,0,0,0,74,31.16V24.57a2.54,2.54,0,0,1,.66-1.76,2.39,2.39,0,0,1,.72-.5,2.24,2.24,0,0,1,1.71,0,2.23,2.23,0,0,1,.71.5,2.5,2.5,0,0,1,.66,1.76v6.59a7.05,7.05,0,0,1-1.72,5A6.23,6.23,0,0,1,72,38Z"/><path class="cls-3" d="M40.49,24.2c.71-1,1.35-1.94,2-2.85a29.31,29.31,0,0,1,2.52-3.22,1.78,1.78,0,0,1,3,.44,2.07,2.07,0,0,1-.2,2.25c-.71,1.11-1.48,2.17-2.23,3.25s-1.72,2.4-2.52,3.64a2.69,2.69,0,0,0-.43,1.35c0,1.94,0,3.88,0,5.82a6.24,6.24,0,0,1-.13,1.22,2,2,0,0,1-2.36,1.82,2,2,0,0,1-1.79-2.19c0-2-.06-4,0-6a3.64,3.64,0,0,0-.75-2.42c-1.34-1.8-2.62-3.64-3.89-5.49a9.25,9.25,0,0,1-.94-1.72,1.78,1.78,0,0,1,.65-2.17,1.84,1.84,0,0,1,2.35,0A8,8,0,0,1,37,19.34c1,1.39,2,2.82,3,4.23C40.1,23.76,40.27,23.93,40.49,24.2Z"/><path class="cls-4" d="M104.34,35.15l-2.81-15.72a2.9,2.9,0,0,0-3.59-2,2.77,2.77,0,0,0-2.23,1.87l-3.1,11.8-3.09-11.8a2.78,2.78,0,0,0-2.24-1.87,2.9,2.9,0,0,0-3.59,2L80.88,35.15a2.28,2.28,0,0,0,1.59,2.69A2.33,2.33,0,0,0,85.3,36L87,23.45s2.75,11.44,3.22,13.07A2.57,2.57,0,0,0,92.45,38h.32A2.54,2.54,0,0,0,95,36.52c.47-1.63,3.22-13.07,3.22-13.07L99.92,36a2.33,2.33,0,0,0,2.83,1.83A2.28,2.28,0,0,0,104.34,35.15Z"/><path class="cls-4" d="M109.81,28.44h5.76a2.9,2.9,0,0,0-5.76,0Zm1.58,5.19c2.63,1.16,5.62-.87,5.62-.87,2.58-.76,2.58,1.38,2.58,1.38.08,1.74-1.88,2.72-1.88,2.72a9.79,9.79,0,0,1-8.79.11c-4-2.37-3.61-7.25-3.61-7.25,0-1.71,1.07-7.25,7.3-7.52A7.09,7.09,0,0,1,120,29c.13,2.4-1.28,2.39-1.28,2.39H110c-.09,1.36,1.43,2.23,1.43,2.23"/><path class="cls-3" d="M63.23,30.06a7.46,7.46,0,1,1-14.89,0,7.46,7.46,0,1,1,14.89,0Zm-7.44-3.83c-1.74,0-3.14,1.73-3.14,3.86S54.05,34,55.79,34s3.14-1.73,3.14-3.87-1.41-3.86-3.14-3.86Z"/></svg>