<svg width="25" height="24" viewBox="0 0 25 24" fill="none" xmlns="http://www.w3.org/2000/svg">
  <path d="M18.6114 13.55C18.1914 13.96 17.9514 14.55 18.0114 15.18C18.1014 16.26 19.0914 17.05 20.1714 17.05H22.0714V18.24C22.0714 20.31 20.3814 22 18.3114 22H8.20141C8.51141 21.74 8.78141 21.42 8.99141 21.06C9.36141 20.46 9.57141 19.75 9.57141 19C9.57141 16.79 7.78141 15 5.57141 15C4.63141 15 3.76141 15.33 3.07141 15.88V11.51C3.07141 9.44001 4.76141 7.75 6.83141 7.75H18.3114C20.3814 7.75 22.0714 9.44001 22.0714 11.51V12.95H20.0514C19.4914 12.95 18.9814 13.17 18.6114 13.55Z" stroke="#1A76E3" stroke-width="1.5" stroke-linecap="round" stroke-linejoin="round" />
  <path d="M3.07141 12.41V7.84004C3.07141 6.65004 3.80141 5.59 4.91141 5.17L12.8514 2.17C14.0914 1.7 15.4214 2.62003 15.4214 3.95003V7.75002" stroke="#1A76E3" stroke-width="1.5" stroke-linecap="round" stroke-linejoin="round" />
  <path d="M23.1302 13.9702V16.0302C23.1302 16.5802 22.6902 17.0302 22.1302 17.0502H20.1702C19.0902 17.0502 18.1002 16.2602 18.0102 15.1802C17.9502 14.5502 18.1902 13.9602 18.6102 13.5502C18.9802 13.1702 19.4902 12.9502 20.0502 12.9502H22.1302C22.6902 12.9702 23.1302 13.4202 23.1302 13.9702Z" stroke="#1A76E3" stroke-width="1.5" stroke-linecap="round" stroke-linejoin="round" />
  <path d="M7.57141 12H14.5714" stroke="#1A76E3" stroke-width="1.5" stroke-linecap="round" stroke-linejoin="round" />
  <path d="M9.57141 19C9.57141 19.75 9.36141 20.46 8.99141 21.06C8.78141 21.42 8.51141 21.74 8.20141 22C7.50141 22.63 6.58141 23 5.57141 23C4.11141 23 2.84141 22.22 2.15141 21.06C1.78141 20.46 1.57141 19.75 1.57141 19C1.57141 17.74 2.15141 16.61 3.07141 15.88C3.76141 15.33 4.63141 15 5.57141 15C7.78141 15 9.57141 16.79 9.57141 19Z" stroke="#1A76E3" stroke-width="1.5" stroke-miterlimit="10" stroke-linecap="round" stroke-linejoin="round" />
  <path d="M7.06313 18.9795H4.08313" stroke="#1A76E3" stroke-width="1.5" stroke-miterlimit="10" stroke-linecap="round" stroke-linejoin="round" />
  <path d="M5.57141 17.5195V20.5095" stroke="#1A76E3" stroke-width="1.5" stroke-miterlimit="10" stroke-linecap="round" stroke-linejoin="round" />
</svg>