<svg
            width="20"
            height="20"
            viewBox="0 0 24 24"
            fill="none"
            xmlns="http://www.w3.org/2000/svg"
          >
            <path
              fill-rule="evenodd"
              clip-rule="evenodd"
              d="M11.7769 13.4647C11.1079 13.4647 10.4409 13.2437 9.88289 12.8017L5.39789 9.18574C5.07489 8.92574 5.02489 8.45274 5.28389 8.13074C5.54489 7.80974 6.01689 7.75874 6.33889 8.01774L10.8199 11.6297C11.3829 12.0757 12.1759 12.0757 12.7429 11.6257L17.1789 8.01974C17.5009 7.75674 17.9729 7.80674 18.2349 8.12874C18.4959 8.44974 18.4469 8.92174 18.1259 9.18374L13.6819 12.7957C13.1199 13.2417 12.4479 13.4647 11.7769 13.4647Z"
              fill="#374151"
            />
            <mask
              id="mask0_30703_82286"
              style="mask-type: alpha"
              maskUnits="userSpaceOnUse"
              x="1"
              y="2"
              width="22"
              height="20"
            >
              <path
                fill-rule="evenodd"
                clip-rule="evenodd"
                d="M1 2H22.4999V21.5H1V2Z"
                fill="white"
              />
            </mask>
            <g mask="url(#mask0_30703_82286)">
              <path
                fill-rule="evenodd"
                clip-rule="evenodd"
                d="M6.83891 20H16.6589C16.6609 19.998 16.6689 20 16.6749 20C17.8159 20 18.8279 19.592 19.6039 18.817C20.5049 17.92 20.9999 16.631 20.9999 15.188V8.32C20.9999 5.527 19.1739 3.5 16.6589 3.5H6.84091C4.32591 3.5 2.49991 5.527 2.49991 8.32V15.188C2.49991 16.631 2.99591 17.92 3.89591 18.817C4.67191 19.592 5.68491 20 6.82491 20H6.83891ZM6.82191 21.5C5.27891 21.5 3.90091 20.94 2.83691 19.88C1.65191 18.698 0.999908 17.032 0.999908 15.188V8.32C0.999908 4.717 3.51091 2 6.84091 2H16.6589C19.9889 2 22.4999 4.717 22.4999 8.32V15.188C22.4999 17.032 21.8479 18.698 20.6629 19.88C19.5999 20.939 18.2209 21.5 16.6749 21.5H16.6589H6.84091H6.82191Z"
                fill="#374151"
              />
            </g>
          </svg>