<svg width="25" height="24" viewBox="0 0 25 24" fill="none" xmlns="http://www.w3.org/2000/svg">
  <path d="M12.8571 22H17.8571C20.8571 22 22.8571 20 22.8571 17V12C22.8571 9.3 21.1571 7.3 18.6571 7C18.4571 7 18.1571 7 17.8571 7H7.85706C7.55706 7 7.35705 6.99998 7.05705 7.09998C4.45705 7.39998 2.85706 9.3 2.85706 12C2.85706 12.3 2.85706 12.7 2.85706 13" stroke="#1A76E3" stroke-width="1.5" stroke-linecap="round" stroke-linejoin="round" />
  <path d="M18.657 7.00001C18.457 7.00001 18.157 7.00001 17.857 7.00001H7.85701C7.55701 7.00001 7.35701 6.99999 7.05701 7.09999C7.15701 6.79999 7.35701 6.6 7.65701 6.3L10.857 3.00001C12.257 1.60001 14.457 1.60001 15.857 3.00001L17.657 4.8C18.257 5.4 18.557 6.20001 18.657 7.00001Z" stroke="#1A76E3" stroke-width="1.5" stroke-linecap="round" stroke-linejoin="round" />
  <path d="M22.8571 12.5H19.8571C18.7571 12.5 17.8571 13.4 17.8571 14.5C17.8571 15.6 18.7571 16.5 19.8571 16.5H22.8571" stroke="#1A76E3" stroke-width="1.5" stroke-linecap="round" stroke-linejoin="round" />
  <path d="M6.65862 21.4C8.42862 21.4 9.85862 19.97 9.85862 18.2C9.85862 16.43 8.42862 15 6.65862 15C4.88862 15 3.45862 16.43 3.45862 18.2C3.45862 19.97 4.88862 21.4 6.65862 21.4Z" stroke="#1A76E3" stroke-width="1.5" stroke-linecap="round" stroke-linejoin="round" />
  <path d="M2.85706 22L3.85706 21" stroke="#1A76E3" stroke-width="1.5" stroke-linecap="round" stroke-linejoin="round" />
</svg>