<svg width="25" height="24" viewBox="0 0 25 24" fill="none" xmlns="http://www.w3.org/2000/svg">
  <path d="M21.2142 11.3V7.04001C21.2142 3.01001 20.2742 2 16.4942 2H8.93423C5.15423 2 4.21423 3.01001 4.21423 7.04001V18.3C4.21423 20.96 5.67424 21.59 7.44424 19.69L7.45422 19.68C8.27422 18.81 9.52422 18.88 10.2342 19.83L11.2442 21.18" stroke="#1A76E3" stroke-width="1.5" stroke-linecap="round" stroke-linejoin="round" />
  <path d="M18.9142 21.4C20.6816 21.4 22.1142 19.9673 22.1142 18.2C22.1142 16.4327 20.6816 15 18.9142 15C17.1469 15 15.7142 16.4327 15.7142 18.2C15.7142 19.9673 17.1469 21.4 18.9142 21.4Z" stroke="#1A76E3" stroke-width="1.5" stroke-linecap="round" stroke-linejoin="round" />
  <path d="M22.7142 22L21.7142 21" stroke="#1A76E3" stroke-width="1.5" stroke-linecap="round" stroke-linejoin="round" />
  <path d="M8.71423 7H16.7142" stroke="#1A76E3" stroke-width="1.5" stroke-linecap="round" stroke-linejoin="round" />
  <path d="M9.71423 11H15.7142" stroke="#1A76E3" stroke-width="1.5" stroke-linecap="round" stroke-linejoin="round" />
</svg>