          <svg
            width="20"
            height="20"
            viewBox="0 0 17 20"
            fill="none"
            xmlns="http://www.w3.org/2000/svg"
          >
            <path
              fill-rule="evenodd"
              clip-rule="evenodd"
              d="M8.2505 6.5C7.2855 6.5 6.5005 7.285 6.5005 8.251C6.5005 9.216 7.2855 10 8.2505 10C9.2155 10 10.0005 9.216 10.0005 8.251C10.0005 7.285 9.2155 6.5 8.2505 6.5ZM8.2505 11.5C6.4585 11.5 5.0005 10.043 5.0005 8.251C5.0005 6.458 6.4585 5 8.2505 5C10.0425 5 11.5005 6.458 11.5005 8.251C11.5005 10.043 10.0425 11.5 8.2505 11.5Z"
              fill="#374151"
            />
            <mask
              id="mask0_30699_100052"
              style="mask-type: alpha"
              maskUnits="userSpaceOnUse"
              x="0"
              y="0"
              width="20"
              height="20"
            >
              <path
                fill-rule="evenodd"
                clip-rule="evenodd"
                d="M0 0H16.4995V19.5H0V0Z"
                fill="white"
              />
            </mask>
            <g mask="url(#mask0_30699_100052)">
              <path
                fill-rule="evenodd"
                clip-rule="evenodd"
                d="M8.2495 1.5C4.5275 1.5 1.4995 4.557 1.4995 8.313C1.4995 13.092 7.1235 17.748 8.2495 17.996C9.3755 17.747 14.9995 13.091 14.9995 8.313C14.9995 4.557 11.9715 1.5 8.2495 1.5ZM8.2495 19.5C6.4555 19.5 -0.00050354 13.948 -0.00050354 8.313C-0.00050354 3.729 3.7005 0 8.2495 0C12.7985 0 16.4995 3.729 16.4995 8.313C16.4995 13.948 10.0435 19.5 8.2495 19.5Z"
                fill="#374151"
              />
            </g>
          </svg>