<svg width="25" height="24" viewBox="0 0 25 24" fill="none" xmlns="http://www.w3.org/2000/svg">
  <path d="M22.2856 10V15C22.2856 20 20.2856 22 15.2856 22H9.28564C4.28564 22 2.28564 20 2.28564 15V9C2.28564 4 4.28564 2 9.28564 2H14.2856" stroke="#1A76E3" stroke-width="1.5" stroke-linecap="round" stroke-linejoin="round" />
  <path d="M22.2856 10H18.2856C15.2856 10 14.2856 9 14.2856 6V2L22.2856 10Z" stroke="#1A76E3" stroke-width="1.5" stroke-linecap="round" stroke-linejoin="round" />
  <path d="M6.90567 15.73C6.57567 14.7 6.96567 13.43 8.03567 13.08C8.60567 12.9 9.30567 13.05 9.69567 13.6C10.0657 13.03 10.7957 12.9 11.3557 13.08C12.4357 13.43 12.8157 14.7 12.4957 15.73C11.9857 17.36 10.1957 18.21 9.69567 18.21C9.20567 18.2 7.43567 17.37 6.90567 15.73Z" stroke="#1A76E3" stroke-width="1.5" stroke-linecap="round" stroke-linejoin="round" />
</svg>