<svg width="25" height="24" viewBox="0 0 25 24" fill="none" xmlns="http://www.w3.org/2000/svg">
  <g clip-path="url(#clip0_30437_460421)">
    <path opacity="0.4" d="M20.866 10.125C20.7921 10.125 20.7189 10.1395 20.6507 10.1678C20.5824 10.1961 20.5204 10.2375 20.4682 10.2897C20.416 10.342 20.3745 10.404 20.3463 10.4722C20.318 10.5405 20.3035 10.6136 20.3035 10.6875V11.25H18.7556C18.6186 10.0837 18.1603 8.97839 17.4318 8.05737L18.5273 6.96185L18.9682 7.33521C19.0204 7.38754 19.0824 7.42906 19.1507 7.45741C19.2189 7.48576 19.2921 7.50038 19.366 7.50042C19.44 7.50047 19.5132 7.48594 19.5815 7.45768C19.6498 7.42941 19.7118 7.38796 19.7641 7.3357C19.8164 7.28343 19.8578 7.22138 19.8861 7.15308C19.9144 7.08478 19.9289 7.01158 19.9289 6.93766C19.9288 6.86374 19.9142 6.79056 19.8859 6.72229C19.8575 6.65402 19.816 6.59201 19.7637 6.53979L17.8887 4.66479C17.7833 4.55931 17.6402 4.50004 17.491 4.50004C17.3418 4.50003 17.1988 4.55928 17.0933 4.66476C16.9878 4.77024 16.9285 4.9133 16.9285 5.06248C16.9285 5.21165 16.9878 5.35472 17.0933 5.46021L17.4666 5.90112L16.3711 6.99664C15.4501 6.26819 14.3448 5.80993 13.1785 5.67297V4.125H13.741C13.8902 4.125 14.0332 4.06574 14.1387 3.96025C14.2442 3.85476 14.3035 3.71168 14.3035 3.5625C14.3035 3.41332 14.2442 3.27024 14.1387 3.16475C14.0332 3.05926 13.8902 3 13.741 3H11.116C10.9668 3 10.8237 3.05926 10.7182 3.16475C10.6127 3.27024 10.5535 3.41332 10.5535 3.5625C10.5535 3.71168 10.6127 3.85476 10.7182 3.96025C10.8237 4.06574 10.9668 4.125 11.116 4.125H11.6785V5.67297C10.5122 5.80993 9.40688 6.26819 8.48584 6.99664L7.39032 5.90112L7.76369 5.46021C7.81592 5.40797 7.85734 5.34597 7.88561 5.27772C7.91387 5.20948 7.92842 5.13634 7.92841 5.06248C7.92841 4.98861 7.91386 4.91547 7.88559 4.84723C7.85732 4.77899 7.81589 4.71699 7.76366 4.66476C7.71142 4.61253 7.64942 4.57111 7.58117 4.54284C7.51293 4.51458 7.43979 4.50003 7.36593 4.50004C7.21675 4.50004 7.07369 4.55931 6.96821 4.66479L5.13643 6.53979C5.03138 6.64537 4.97249 6.78831 4.97268 6.93725C4.97287 7.08618 5.03212 7.22897 5.13745 7.33428C5.24277 7.43959 5.38556 7.49883 5.5345 7.499C5.68343 7.49917 5.82636 7.44027 5.93193 7.33521L6.32968 6.96185L7.42513 8.05737C6.69661 8.97839 6.23831 10.0837 6.10137 11.25H4.55347V10.6875C4.55347 10.5383 4.4942 10.3952 4.38871 10.2898C4.28323 10.1843 4.14015 10.125 3.99097 10.125C3.84178 10.125 3.69871 10.1843 3.59322 10.2898C3.48773 10.3952 3.42847 10.5383 3.42847 10.6875V13.3125C3.42847 13.4617 3.48773 13.6048 3.59322 13.7102C3.69871 13.8157 3.84178 13.875 3.99097 13.875C4.14015 13.875 4.28323 13.8157 4.38871 13.7102C4.4942 13.6048 4.55347 13.4617 4.55347 13.3125V12.75H6.10137C6.23831 13.9163 6.69661 15.0216 7.42512 15.9426L6.32968 17.0381L5.88875 16.6648C5.78323 16.5595 5.64023 16.5004 5.49116 16.5005C5.34209 16.5006 5.19915 16.5598 5.09374 16.6652C4.98833 16.7706 4.92906 16.9135 4.92897 17.0626C4.92888 17.2117 4.98796 17.3547 5.09325 17.4602L6.96821 19.3352C7.02044 19.3874 7.08244 19.4289 7.15068 19.4571C7.21892 19.4854 7.29206 19.5 7.36593 19.5C7.43979 19.5 7.51293 19.4854 7.58117 19.4572C7.64942 19.4289 7.71142 19.3875 7.76366 19.3352C7.81589 19.283 7.85732 19.221 7.88559 19.1528C7.91386 19.0845 7.92841 19.0114 7.92841 18.9375C7.92842 18.8637 7.91387 18.7905 7.88561 18.7223C7.85734 18.654 7.81592 18.592 7.76369 18.5398L7.39032 18.0989L8.4858 17.0034C9.40685 17.7318 10.5122 18.1901 11.6785 18.327V19.875H11.116C10.9668 19.875 10.8237 19.9343 10.7182 20.0398C10.6127 20.1452 10.5535 20.2883 10.5535 20.4375C10.5535 20.5867 10.6127 20.7298 10.7182 20.8352C10.8237 20.9407 10.9668 21 11.116 21H13.741C13.8902 21 14.0332 20.9407 14.1387 20.8352C14.2442 20.7298 14.3035 20.5867 14.3035 20.4375C14.3035 20.2883 14.2442 20.1452 14.1387 20.0398C14.0332 19.9343 13.8902 19.875 13.741 19.875H13.1785V18.327C14.3448 18.1901 15.4501 17.7318 16.3711 17.0034L17.4666 18.0989L17.0932 18.5398C16.9878 18.6453 16.9285 18.7883 16.9285 18.9375C16.9285 19.0867 16.9878 19.2298 17.0933 19.3352C17.1988 19.4407 17.3418 19.5 17.491 19.5C17.6402 19.5 17.7832 19.4407 17.8887 19.3352L19.7637 17.4602C19.816 17.408 19.8575 17.346 19.8859 17.2777C19.9142 17.2094 19.9288 17.1363 19.9289 17.0623C19.9289 16.9884 19.9144 16.9152 19.8861 16.8469C19.8578 16.7786 19.8164 16.7166 19.7641 16.6643C19.7118 16.612 19.6498 16.5706 19.5815 16.5423C19.5132 16.5141 19.44 16.4995 19.366 16.4996C19.2921 16.4996 19.2189 16.5142 19.1507 16.5426C19.0824 16.5709 19.0204 16.6125 18.9682 16.6648L18.5273 17.0381L17.4318 15.9426C18.1603 15.0216 18.6186 13.9163 18.7556 12.75H20.3035V13.3125C20.3035 13.4617 20.3627 13.6048 20.4682 13.7102C20.5737 13.8157 20.7168 13.875 20.866 13.875C21.0152 13.875 21.1582 13.8157 21.2637 13.7102C21.3692 13.6048 21.4285 13.4617 21.4285 13.3125V10.6875C21.4285 10.6136 21.4139 10.5405 21.3857 10.4722C21.3574 10.404 21.316 10.342 21.2637 10.2897C21.2115 10.2375 21.1495 10.1961 21.0812 10.1678C21.013 10.1395 20.9398 10.125 20.866 10.125ZM10.366 10.5C10.1064 10.5 9.85262 10.423 9.63678 10.2788C9.42094 10.1346 9.25271 9.9296 9.15337 9.68977C9.05403 9.44994 9.02804 9.18604 9.07869 8.93144C9.12933 8.67684 9.25433 8.44298 9.43789 8.25942C9.62145 8.07587 9.85531 7.95086 10.1099 7.90022C10.3645 7.84958 10.6284 7.87557 10.8682 7.97491C11.1081 8.07425 11.3131 8.24247 11.4573 8.45831C11.6015 8.67415 11.6785 8.92791 11.6785 9.1875C11.6785 9.35986 11.6445 9.53053 11.5786 9.68978C11.5126 9.84902 11.4159 9.99371 11.2941 10.1156C11.1722 10.2375 11.0275 10.3341 10.8682 10.4001C10.709 10.4661 10.5383 10.5 10.366 10.5ZM14.6785 15.375C14.5301 15.375 14.3851 15.331 14.2618 15.2486C14.1385 15.1662 14.0423 15.0491 13.9856 14.912C13.9288 14.775 13.9139 14.6242 13.9429 14.4787C13.9718 14.3332 14.0432 14.1996 14.1481 14.0947C14.253 13.9898 14.3867 13.9184 14.5321 13.8894C14.6776 13.8605 14.8284 13.8753 14.9655 13.9321C15.1025 13.9889 15.2197 14.085 15.3021 14.2083C15.3845 14.3317 15.4285 14.4767 15.4285 14.625C15.4285 14.8239 15.3494 15.0147 15.2088 15.1553C15.0681 15.296 14.8774 15.375 14.6785 15.375Z" fill="#1A76E3" />
    <path fill-rule="evenodd" clip-rule="evenodd" d="M12.4285 22.5C15.2132 22.5 17.884 21.3938 19.8531 19.4246C21.8222 17.4555 22.9285 14.7848 22.9285 12C22.9285 9.21523 21.8222 6.54451 19.8531 4.57538C17.884 2.60625 15.2132 1.5 12.4285 1.5C9.64369 1.5 6.97298 2.60625 5.00385 4.57538C3.03471 6.54451 1.92847 9.21523 1.92847 12C1.92847 14.7848 3.03471 17.4555 5.00385 19.4246C6.97298 21.3938 9.64369 22.5 12.4285 22.5ZM12.4285 24C15.6111 24 18.6633 22.7357 20.9137 20.4853C23.1642 18.2348 24.4285 15.1826 24.4285 12C24.4285 8.8174 23.1642 5.76516 20.9137 3.51472C18.6633 1.26428 15.6111 0 12.4285 0C9.24587 0 6.19362 1.26428 3.94319 3.51472C1.69275 5.76516 0.428467 8.8174 0.428467 12C0.428467 15.1826 1.69275 18.2348 3.94319 20.4853C6.19362 22.7357 9.24587 24 12.4285 24Z" fill="#1A76E3" />
    <path fill-rule="evenodd" clip-rule="evenodd" d="M18.2094 6.21901C18.2793 6.28868 18.3347 6.37144 18.3725 6.46256C18.4103 6.55368 18.4298 6.65136 18.4298 6.75001C18.4298 6.84866 18.4103 6.94635 18.3725 7.03746C18.3347 7.12858 18.2793 7.21134 18.2094 7.28101L7.70944 17.781C7.56861 17.9218 7.3776 18.001 7.17844 18.001C6.97927 18.001 6.78827 17.9218 6.64744 17.781C6.50661 17.6402 6.42749 17.4492 6.42749 17.25C6.42749 17.0508 6.50661 16.8598 6.64744 16.719L17.1474 6.21901C17.2171 6.14917 17.2999 6.09375 17.391 6.05594C17.4821 6.01813 17.5798 5.99867 17.6784 5.99867C17.7771 5.99867 17.8748 6.01813 17.9659 6.05594C18.057 6.09375 18.1398 6.14917 18.2094 6.21901Z" fill="#1A76E3" />
  </g>
  <defs>
    <clipPath id="clip0_30437_460421">
      <rect width="24" height="24" fill="white" transform="translate(0.428467)" />
    </clipPath>
  </defs>
</svg>