<svg width="18" height="18" viewBox="0 0 18 18" fill="none" xmlns="http://www.w3.org/2000/svg">
  <path d="M9 17.0625C4.5525 17.0625 0.9375 13.4475 0.9375 9C0.9375 4.5525 4.5525 0.9375 9 0.9375C13.4475 0.9375 17.0625 4.5525 17.0625 9C17.0625 13.4475 13.4475 17.0625 9 17.0625ZM9 2.0625C5.175 2.0625 2.0625 5.175 2.0625 9C2.0625 12.825 5.175 15.9375 9 15.9375C12.825 15.9375 15.9375 12.825 15.9375 9C15.9375 5.175 12.825 2.0625 9 2.0625Z" fill="#333333" />
  <path d="M6.75005 16.3125H6.00005C5.69255 16.3125 5.43755 16.0575 5.43755 15.75C5.43755 15.4425 5.67755 15.195 5.98505 15.1875C4.80755 11.1675 4.80755 6.8325 5.98505 2.8125C5.67755 2.805 5.43755 2.5575 5.43755 2.25C5.43755 1.9425 5.69255 1.6875 6.00005 1.6875H6.75005C6.93005 1.6875 7.10255 1.7775 7.20755 1.92C7.31255 2.07 7.34255 2.2575 7.28255 2.43C5.87255 6.6675 5.87255 11.3325 7.28255 15.5775C7.34255 15.75 7.31255 15.9375 7.20755 16.0875C7.10255 16.2225 6.93005 16.3125 6.75005 16.3125Z" fill="#333333" />
  <path d="M11.2501 16.3125C11.1901 16.3125 11.1301 16.305 11.0701 16.2825C10.7776 16.185 10.6126 15.8625 10.7176 15.57C12.1276 11.3325 12.1276 6.66751 10.7176 2.42251C10.6201 2.13001 10.7776 1.80751 11.0701 1.71001C11.3701 1.61251 11.6851 1.77001 11.7826 2.06251C13.2751 6.53251 13.2751 11.4525 11.7826 15.915C11.7076 16.1625 11.4826 16.3125 11.2501 16.3125Z" fill="#333333" />
  <path d="M9 12.9C6.9075 12.9 4.8225 12.6075 2.8125 12.015C2.805 12.315 2.5575 12.5625 2.25 12.5625C1.9425 12.5625 1.6875 12.3075 1.6875 12V11.25C1.6875 11.07 1.7775 10.8975 1.92 10.7925C2.07 10.6875 2.2575 10.6575 2.43 10.7175C6.6675 12.1275 11.34 12.1275 15.5775 10.7175C15.75 10.6575 15.9375 10.6875 16.0875 10.7925C16.2375 10.8975 16.32 11.07 16.32 11.25V12C16.32 12.3075 16.065 12.5625 15.7575 12.5625C15.45 12.5625 15.2025 12.3225 15.195 12.015C13.1775 12.6075 11.0925 12.9 9 12.9Z" fill="#333333" />
  <path d="M15.75 7.31249C15.69 7.31249 15.63 7.30499 15.57 7.28249C11.3325 5.87249 6.65996 5.87249 2.42246 7.28249C2.12246 7.37999 1.80746 7.22249 1.70996 6.92999C1.61996 6.62999 1.77746 6.31499 2.06996 6.21749C6.53996 4.72499 11.46 4.72499 15.9225 6.21749C16.215 6.31499 16.38 6.63749 16.275 6.92999C16.2075 7.16249 15.9825 7.31249 15.75 7.31249Z" fill="#333333" />
</svg>