          <svg
            width="168"
            height="48"
            viewBox="0 0 168 48"
            fill="none"
            xmlns="http://www.w3.org/2000/svg"
          >
            <g clip-path="url(#clip0_30734_98931)">
              <path
                d="M88.7102 38.6082C86.2097 38.6082 84.2327 37.8752 82.85 36.4341C81.4415 34.9742 80.7243 32.9442 80.7243 30.413V22.4871C80.7243 21.6663 81.0086 20.9333 81.5449 20.3819C82.0682 19.8431 82.7208 19.5674 83.4896 19.5674C84.2585 19.5674 84.9111 19.8431 85.4344 20.3819C85.9707 20.9395 86.255 21.6663 86.255 22.4871V30.4192C86.255 31.3966 86.4423 32.1046 86.8235 32.5182C87.2047 32.938 87.8379 33.151 88.7102 33.151C89.6018 33.151 90.2479 32.938 90.6291 32.5182C91.0038 32.1046 91.1977 31.3966 91.1977 30.4192V22.4871C91.1977 21.6663 91.482 20.9395 92.0182 20.3819C92.5416 19.8431 93.1941 19.5674 93.963 19.5674C94.7319 19.5674 95.3844 19.8431 95.9078 20.3819C96.444 20.9395 96.7283 21.6663 96.7283 22.4871V30.4192C96.7283 32.9505 96.0047 34.9805 94.5833 36.4466C93.1877 37.8814 91.2106 38.6082 88.7102 38.6082Z"
                fill="#10A95B"
              />
              <path
                d="M49.6079 21.7728C50.4866 20.5698 51.2813 19.4358 52.1277 18.3393C53.1356 17.0235 54.0854 15.6389 55.2548 14.4735C56.463 13.2705 58.1171 13.5838 58.9376 14.9998C59.4803 15.9333 59.2413 16.8732 58.6856 17.7065C57.8069 19.0348 56.8507 20.3129 55.9268 21.6099C54.8801 23.0698 53.7946 24.4983 52.7932 25.9832C52.483 26.4469 52.2763 27.0546 52.2634 27.606C52.2052 29.9367 52.2504 32.2738 52.2311 34.6108C52.2246 35.0995 52.1664 35.5945 52.0631 36.0707C51.6948 37.7436 50.8032 38.3952 49.1427 38.2573C47.8634 38.1508 46.9524 37.1421 46.9201 35.6321C46.8684 33.2324 46.8426 30.8327 46.9007 28.433C46.9265 27.324 46.6552 26.4155 45.9639 25.5196C44.3034 23.358 42.7204 21.14 41.1439 18.922C40.6852 18.2766 40.2846 17.5812 39.9809 16.8544C39.561 15.8644 39.9228 14.8619 40.795 14.2417C41.7125 13.59 42.8626 13.5462 43.7089 14.2479C44.2969 14.7304 44.8202 15.3131 45.2725 15.9208C46.526 17.5937 47.7213 19.3105 48.9488 21.0084C49.1168 21.2402 49.3236 21.4533 49.6079 21.7728Z"
                fill="#10A95B"
              />
              <path
                d="M128.749 34.7048L125.267 15.808C125.267 15.808 124.459 12.7254 120.821 13.4083C120.821 13.4083 118.954 13.5086 118.043 15.6576L114.205 29.8427L110.374 15.6639C109.463 13.5086 107.596 13.4146 107.596 13.4146C103.958 12.7317 103.151 15.8143 103.151 15.8143L99.668 34.711C99.416 37.4992 101.639 37.944 101.639 37.944C104.565 38.5079 105.147 35.7386 105.147 35.7386L107.292 20.6325C107.292 20.6325 110.697 34.3915 111.279 36.3463C111.892 37.7185 113.307 38.0129 114.005 38.0693V38.0819C114.005 38.0819 114.083 38.0881 114.205 38.0819C114.328 38.0881 114.406 38.0819 114.406 38.0819V38.0693C115.103 38.0129 116.512 37.7185 117.132 36.3463C117.714 34.3915 121.119 20.6325 121.119 20.6325L123.264 35.7386C123.264 35.7386 123.845 38.5017 126.772 37.944C126.785 37.9378 129.008 37.4992 128.749 34.7048Z"
                fill="#259CD7"
              />
              <path
                d="M135.533 26.6097H142.666C142.666 26.6097 142.531 23.6711 139.1 23.5396C139.1 23.5458 136.005 23.3516 135.533 26.6097ZM137.485 32.8438C140.747 34.2473 144.45 31.7975 144.45 31.7975C147.648 30.8827 147.648 33.4641 147.648 33.4641C147.751 35.5505 145.328 36.7285 145.328 36.7285C139.604 39.6356 134.422 36.86 134.422 36.86C129.512 34.0218 129.945 28.1447 129.945 28.1447C130.009 26.0896 131.275 19.4294 138.996 19.1036C144.417 18.878 147.88 23.1198 148.113 27.2989C148.274 30.181 146.53 30.1685 146.53 30.1685H135.695C135.598 31.8038 137.485 32.8438 137.485 32.8438Z"
                fill="#259CD7"
              />
              <path
                d="M165.325 11.9985C163.852 11.9985 162.65 13.1639 162.65 14.5925V20.9582C161.326 19.9119 159.73 19.3041 158.005 19.3041C153.463 19.3041 149.78 23.5459 149.78 28.7838C149.78 34.0218 153.463 38.2635 158.005 38.2635C159.794 38.2635 161.448 37.5994 162.799 36.4779C163.154 37.5117 164.149 38.2635 165.325 38.2635C166.798 38.2635 168 37.0981 168 35.6696V14.5987C168 13.1702 166.792 11.9985 165.325 11.9985ZM159.013 33.3764C157.003 33.3764 155.375 31.2775 155.375 28.6961C155.375 26.1084 157.003 24.0158 159.013 24.0158C161.022 24.0158 162.644 26.1147 162.644 28.6961C162.65 31.2837 161.022 33.3764 159.013 33.3764Z"
                fill="#259CD7"
              />
              <path
                d="M77.791 29.0909C77.791 34.3477 73.6624 38.6145 68.5646 38.6145C63.4669 38.6145 59.3383 34.354 59.3383 29.0909C59.3383 23.8279 63.4669 19.5674 68.5646 19.5674C73.6624 19.5674 77.791 23.8279 77.791 29.0909ZM68.5646 24.4858C66.4131 24.4858 64.6686 26.5659 64.6686 29.1285C64.6686 31.6911 66.4131 33.7713 68.5646 33.7713C70.7162 33.7713 72.4606 31.6911 72.4606 29.1285C72.4606 26.5659 70.7162 24.4858 68.5646 24.4858Z"
                fill="#10A95B"
              />
              <path
                d="M16.9999 -0.000970755C16.9999 -0.000970755 -1.90512 -0.702705 0.162409 20.5561C0.427312 22.2604 1.30601 33.7388 16.9999 47.9928V-0.000970755Z"
                fill="#4191CE"
              />
              <path
                d="M16.999 0.00610932C16.999 0.00610932 35.904 -0.695625 33.8365 20.5632C33.5716 22.2612 32.6929 33.7458 16.999 47.9998V0.00610932Z"
                fill="#2880BA"
              />
              <path
                d="M16.999 29.523C24.6745 29.523 30.8967 23.4891 30.8967 16.0459C30.8967 8.60275 24.6745 2.56885 16.999 2.56885C9.32353 2.56885 3.10132 8.60275 3.10132 16.0459C3.10132 23.4891 9.32353 29.523 16.999 29.523Z"
                fill="white"
              />
              <path
                d="M16.999 27.7813C16.7923 27.7813 16.5855 27.7625 16.3723 27.7249C14.6084 27.4367 13.1935 26.0269 13.1999 24.022C13.1999 22.7438 13.1935 21.4719 13.2064 20.1938C13.2128 19.8554 13.1095 19.7426 12.7864 19.7489C12.0757 19.774 11.3714 19.7552 10.6607 19.7552C9.99525 19.7552 9.32976 19.7802 8.67073 19.7489C7.34622 19.6925 6.19616 19.2038 5.44668 18.0134C4.77473 16.942 4.63258 15.7828 5.18823 14.5673C5.78265 13.2704 6.79057 12.6125 8.10216 12.3995C8.39937 12.3493 8.70304 12.3306 9.00671 12.3243C10.1762 12.318 11.3456 12.3243 12.5151 12.318C13.2645 12.3118 13.2064 12.4496 13.2064 11.61C13.2064 10.407 13.2064 9.1978 13.2064 7.99482C13.2064 6.41592 14.3371 4.93726 15.7908 4.49867C16.1978 4.37963 16.6049 4.30444 17.0055 4.30444"
                fill="#258E46"
              />
              <path
                d="M16.999 4.31714C17.1799 4.31714 17.3608 4.32967 17.5417 4.361C18.5884 4.53643 19.5059 5.01261 20.152 5.94617C20.6107 6.59778 20.8045 7.32458 20.7851 8.13283C20.7658 9.32327 20.7787 10.52 20.7787 11.7104C20.7787 12.3432 20.7787 12.3432 21.3666 12.3432C22.6395 12.3432 23.9058 12.3245 25.1786 12.3495C26.5678 12.3746 27.7695 12.8633 28.5642 14.1039C29.2362 15.1502 29.3202 16.303 28.8356 17.4684C28.3769 18.59 27.5434 19.2666 26.4256 19.536C25.9152 19.6614 25.3854 19.7177 24.8685 19.7303C23.6538 19.7553 22.4392 19.7365 21.2245 19.7428C20.8174 19.7428 20.7722 19.7804 20.7722 20.2065C20.7722 21.5911 20.8045 22.9695 20.7722 24.3542C20.7464 25.4068 20.2359 26.2401 19.4671 26.8792C18.7305 27.4995 17.8777 27.794 16.9796 27.7877"
                fill="#10A95B"
              />
            </g>
            <defs>
              <clipPath id="clip0_30734_98931">
                <rect width="168" height="48" fill="white" />
              </clipPath>
            </defs>
          </svg>