<svg width="60" height="60" viewBox="0 0 60 60" fill="none" xmlns="http://www.w3.org/2000/svg">
<path opacity="0.4" d="M42.2108 12.7871H34.8531C33.0202 12.7992 31.28 11.9839 30.1184 10.5688L27.6955 7.21906C26.5534 5.79153 24.8132 4.97236 22.983 5.00071H17.7815C8.44547 5.00071 5.00003 10.48 5.00003 19.7971V29.8684C4.98841 30.976 54.9891 30.9745 54.9923 29.8684V26.9402C55.0368 17.6231 51.6802 12.7871 42.2108 12.7871Z" fill="url(#paint0_linear_30082_2326)"/>
<path fill-rule="evenodd" clip-rule="evenodd" d="M52.0803 16.3585C52.8802 17.2937 53.4983 18.3695 53.9031 19.5307C54.6996 21.9174 55.0683 24.4255 54.9923 26.94V40.0726C54.9891 41.1788 54.9074 42.2833 54.7478 43.3779C54.4438 45.3098 53.7642 47.1636 52.7472 48.8351C52.2797 49.6425 51.7121 50.3878 51.0578 51.0534C48.0958 53.7719 44.1624 55.187 40.1435 54.9799H19.8265C15.8012 55.1855 11.8615 53.771 8.89002 51.0534C8.24351 50.3865 7.68341 49.6412 7.22287 48.8351C6.21187 47.1648 5.54672 45.3092 5.26675 43.3779C5.08872 42.2851 4.99952 41.1798 5 40.0726V26.94C4.99957 25.8432 5.05893 24.7472 5.17783 23.6568C5.20283 23.4655 5.24034 23.2774 5.27745 23.0911C5.33932 22.7806 5.40012 22.4756 5.40012 22.1705C5.62576 20.8547 6.0374 19.5775 6.6227 18.3772C8.35653 14.6725 11.9131 12.7869 17.737 12.7869H42.1886C45.4506 12.5347 48.6882 13.5166 51.2579 15.5377C51.5538 15.7886 51.8289 16.0631 52.0803 16.3585ZM17.4258 38.8525H42.5887H42.6332C43.1853 38.8765 43.724 38.6789 44.1292 38.3038C44.5343 37.9286 44.772 37.4073 44.7893 36.856C44.8206 36.3715 44.661 35.8939 44.3448 35.525C43.9809 35.0292 43.4045 34.7334 42.7888 34.7264H17.4258C16.2841 34.7264 15.3586 35.6501 15.3586 36.7895C15.3586 37.9289 16.2841 38.8525 17.4258 38.8525Z" fill="url(#paint1_linear_30082_2326)"/>
<defs>
<linearGradient id="paint0_linear_30082_2326" x1="17.6545" y1="6.68647" x2="25.5478" y2="33.7783" gradientUnits="userSpaceOnUse">
<stop stop-color="#38BDF8"/>
<stop offset="1" stop-color="#6366F1"/>
</linearGradient>
<linearGradient id="paint1_linear_30082_2326" x1="17.6568" y1="15.5208" x2="36.4824" y2="54.8281" gradientUnits="userSpaceOnUse">
<stop stop-color="#38BDF8"/>
<stop offset="1" stop-color="#6366F1"/>
</linearGradient>
</defs>
</svg>
